<svg xmlns="http://www.w3.org/2000/svg" width="32" height="32" id="study"><path d="M23.333 2.223a.5.5 0 0 0-.352.16l-2.298 2.5a.5.5 0 0 0-.108.18l-1.34-1.342a2.343 2.343 0 0 0-.605 2.263 2.343 2.343 0 0 0 1.656 1.659 2.343 2.343 0 0 0 2.264-.608l-1.342-1.34a.5.5 0 0 0 .21-.134l1.954-2.123 4.37 4.199-1.427.887a.5.5 0 0 0-.234.425v2.772h-.031c-.756 0-1.372.554-1.479 1.279H.001v2h2v14h2l1-14h21l1 14h2V15h2v-2h-2.475a1.489 1.489 0 0 0-1.445-1.275V9.23l1.734-1.08a.5.5 0 0 0 .082-.786l-5.2-5a.5.5 0 0 0-.364-.138z"></path></svg>